<svg data-name="Group 102" xmlns="http://www.w3.org/2000/svg" width="213.482" height="77.388"><g data-name="Group 103"><g data-name="Group 102" fill="#fff"><path data-name="Path 10577" d="M51.602 77.388A12.915 12.915 0 0 1 38.694 64.48h12.908z"/><path data-name="Path 10578" d="M51.6 0H0v64.48h38.694V51.6H12.908V12.908H51.6V64.48h12.88V0z"/></g></g><g data-name="Group 105"><g data-name="Group 104" fill="#fff"><path data-name="Path 10579" d="M92.491 25.344a3.7 3.7 0 0 0-.3-.3 4.579 4.579 0 0 0-1.207-.836 7.627 7.627 0 0 0-1.788-.627 10.863 10.863 0 0 0-2.438-.232 7.483 7.483 0 0 0-3.32.673 5.624 5.624 0 0 0-2.159 1.857 7.3 7.3 0 0 0-1.161 2.67 15.369 15.369 0 0 0-.023 6.176 6.857 6.857 0 0 0 1.114 2.624 5.88 5.88 0 0 0 2.136 1.834 7.518 7.518 0 0 0 3.343.673 10.652 10.652 0 0 0 2.066-.186 6.437 6.437 0 0 0 1.556-.511 4.054 4.054 0 0 0 1.114-.743l.07-.07v4.6a3.835 3.835 0 0 0 3.831 3.831h.023V23.556h-2.346zm-.929 6.292a13.9 13.9 0 0 1-.139 2.043 3.779 3.779 0 0 1-.557 1.509 2.66 2.66 0 0 1-1.161.952 5.053 5.053 0 0 1-2.043.348 4.933 4.933 0 0 1-2.02-.348 2.771 2.771 0 0 1-1.161-.953 3.483 3.483 0 0 1-.58-1.509 11.138 11.138 0 0 1-.163-2.066 11.571 11.571 0 0 1 .163-2.09 3.773 3.773 0 0 1 .58-1.532 2.821 2.821 0 0 1 1.161-.975 4.741 4.741 0 0 1 2-.348 4.977 4.977 0 0 1 2.043.348 2.771 2.771 0 0 1 1.161.952 3.881 3.881 0 0 1 .58 1.556 19.36 19.36 0 0 1 .137 2.113z"/><path data-name="Path 10580" d="M110.926 25.344a5.1 5.1 0 0 0-2.322-1.486 12.726 12.726 0 0 0-3.877-.488 10.865 10.865 0 0 0-3.436.464 5.546 5.546 0 0 0-2.183 1.277 4.435 4.435 0 0 0-1.138 1.927 8.147 8.147 0 0 0-.3 2.322v.348l3.808-.046v-.348a3.9 3.9 0 0 1 .163-1.207 1.821 1.821 0 0 1 .488-.813 2.6 2.6 0 0 1 .975-.534 5.626 5.626 0 0 1 1.672-.186 5.626 5.626 0 0 1 1.811.232 2.633 2.633 0 0 1 1.068.6 2.3 2.3 0 0 1 .557.952 4.85 4.85 0 0 1 .186 1.091l-4.528.441a11.358 11.358 0 0 0-5.015 1.416 3.891 3.891 0 0 0-1.695 3.46 4.641 4.641 0 0 0 .511 2.275 4.321 4.321 0 0 0 1.393 1.579 6.822 6.822 0 0 0 2 .906 9.918 9.918 0 0 0 2.391.3 10.074 10.074 0 0 0 2.271-.226 11.329 11.329 0 0 0 1.834-.6 6.01 6.01 0 0 0 1.37-.859c.163-.139.3-.279.441-.418l.557 1.9h2.345v-9.079a15.882 15.882 0 0 0-.255-2.9 5.165 5.165 0 0 0-1.092-2.3zm-2.531 7.244v.093a3.911 3.911 0 0 1-1.068 2.926 4.228 4.228 0 0 1-3.065 1.045 4.339 4.339 0 0 1-2.391-.534 1.515 1.515 0 0 1-.72-1.347 1.1 1.1 0 0 1 .627-1.071 7.423 7.423 0 0 1 2.67-.65z"/><path data-name="Rectangle 386" d="M114.293 17.705h3.901v21.941h-3.901z"/><path data-name="Path 10581" d="M133.773 25.344a5.1 5.1 0 0 0-2.322-1.486 12.726 12.726 0 0 0-3.877-.488 10.865 10.865 0 0 0-3.436.464 5.546 5.546 0 0 0-2.183 1.277 4.435 4.435 0 0 0-1.138 1.927 8.147 8.147 0 0 0-.3 2.322v.348l3.808-.046v-.348a3.9 3.9 0 0 1 .163-1.207 1.821 1.821 0 0 1 .488-.813 2.6 2.6 0 0 1 .975-.534 7.382 7.382 0 0 1 3.483.046 2.633 2.633 0 0 1 1.068.6 2.3 2.3 0 0 1 .557.952 4.85 4.85 0 0 1 .186 1.091l-4.528.441a11.358 11.358 0 0 0-5.015 1.416 3.891 3.891 0 0 0-1.695 3.46 4.641 4.641 0 0 0 .511 2.275 4.322 4.322 0 0 0 1.393 1.579 6.822 6.822 0 0 0 2 .906 9.918 9.918 0 0 0 2.391.3 10.074 10.074 0 0 0 2.271-.226 11.329 11.329 0 0 0 1.834-.6 6.01 6.01 0 0 0 1.37-.859c.163-.139.3-.279.441-.418l.557 1.9h2.35v-9.079a15.883 15.883 0 0 0-.255-2.9 4.93 4.93 0 0 0-1.097-2.3zm-2.508 7.244v.093a3.911 3.911 0 0 1-1.068 2.926 4.228 4.228 0 0 1-3.065 1.045 4.339 4.339 0 0 1-2.391-.534 1.489 1.489 0 0 1-.743-1.347 1.1 1.1 0 0 1 .627-1.071 7.423 7.423 0 0 1 2.67-.65z"/><path data-name="Path 10582" d="M150.955 37.58a10.624 10.624 0 0 0-2.391-.673c-.859-.139-1.695-.279-2.531-.371-1.695-.209-2.9-.395-3.576-.534-.488-.093-.789-.255-.789-.418a.489.489 0 0 1 .116-.255s.139-.139.836-.232c.3.046.6.07.906.116a5.726 5.726 0 0 0 .906.07c.3 0 .58.023.859.023a14.034 14.034 0 0 0 3.6-.395 5.7 5.7 0 0 0 2.275-1.184 3.97 3.97 0 0 0 1.138-1.857 7.983 7.983 0 0 0 .3-2.3 4.924 4.924 0 0 0-.534-2.391 3.355 3.355 0 0 0-.743-.929l1.718-.511v-2.183h-7.1a14.727 14.727 0 0 0-3.877.441 6.176 6.176 0 0 0-2.438 1.254 4.222 4.222 0 0 0-1.254 1.927 8.207 8.207 0 0 0-.325 2.3 5.513 5.513 0 0 0 .534 2.275 3.816 3.816 0 0 0 1.3 1.509 4.778 4.778 0 0 0-1.277.7 2.248 2.248 0 0 0-.859 1.834 2.321 2.321 0 0 0 .836 1.881 5.538 5.538 0 0 0 1.95 1.022 18.162 18.162 0 0 0 2.554.557c.906.139 1.811.255 2.693.395q.836.139 1.6.279a6.41 6.41 0 0 1 1.207.325 1.912 1.912 0 0 1 .72.441.705.705 0 0 1 .232.534 1.6 1.6 0 0 1-.116.557 1.143 1.143 0 0 1-.464.488 3.85 3.85 0 0 1-1.161.418 10.186 10.186 0 0 1-2.069.157 11.152 11.152 0 0 1-2.206-.186 2.676 2.676 0 0 1-1.184-.511 1.355 1.355 0 0 1-.51-.747 6.821 6.821 0 0 1-.209-1.114l-.023-.3h-4.018v.348a7.035 7.035 0 0 0 .371 2.415 3.934 3.934 0 0 0 1.347 1.857 6.6 6.6 0 0 0 2.508 1.114 16.473 16.473 0 0 0 3.877.371 13.5 13.5 0 0 0 3.808-.441 7.688 7.688 0 0 0 2.439-1.134 3.65 3.65 0 0 0 1.3-1.648 4.709 4.709 0 0 0 .371-1.834 3.228 3.228 0 0 0-.743-2.183 6.094 6.094 0 0 0-1.904-1.277zM145.29 26.9a6.856 6.856 0 0 1 1.741.186 2.414 2.414 0 0 1 .975.511 1.452 1.452 0 0 1 .441.743 3.7 3.7 0 0 1 .116 1.045 4.6 4.6 0 0 1-.139 1.184 1.857 1.857 0 0 1-.464.836 2.452 2.452 0 0 1-.975.557 5.706 5.706 0 0 1-1.695.209 5.174 5.174 0 0 1-1.741-.232 2.2 2.2 0 0 1-.952-.557 1.857 1.857 0 0 1-.464-.836 4.6 4.6 0 0 1-.139-1.184 3.838 3.838 0 0 1 .139-1.068 1.56 1.56 0 0 1 .464-.743 2.414 2.414 0 0 1 .975-.511 9 9 0 0 1 1.717-.141z"/><path data-name="Path 10583" d="M163.261 23.347h-.859a7.1 7.1 0 0 0-3.6.836 4.961 4.961 0 0 0-1.068.813 2.021 2.021 0 0 0-.209.255l-.6-1.695h-2.278v16.067h3.9v-8.869a8.914 8.914 0 0 1 .139-1.648 2.843 2.843 0 0 1 .511-1.207 2.334 2.334 0 0 1 1.022-.766 5 5 0 0 1 1.834-.279 2 2 0 0 1 .371.023 3.429 3.429 0 0 0 .488.023h.348z"/><path data-name="Path 10584" d="M177.378 25.924a6.25 6.25 0 0 0-2.484-1.881 11.141 11.141 0 0 0-7.755 0 6.249 6.249 0 0 0-2.484 1.881 6.8 6.8 0 0 0-1.254 2.647 12.939 12.939 0 0 0-.349 3.016 13.137 13.137 0 0 0 .348 3.042 6.692 6.692 0 0 0 1.277 2.647 6.516 6.516 0 0 0 2.461 1.857 11.14 11.14 0 0 0 7.755 0 6.791 6.791 0 0 0 2.484-1.857 6.525 6.525 0 0 0 1.3-2.67 13.137 13.137 0 0 0 .348-3.042 12.8 12.8 0 0 0-.348-3.018 6.959 6.959 0 0 0-1.299-2.622zm-4.296 10.263a4.77 4.77 0 0 1-2.066.371 4.527 4.527 0 0 1-2.02-.395 3.016 3.016 0 0 1-1.184-1.022 3.829 3.829 0 0 1-.6-1.556 10.745 10.745 0 0 1-.186-1.974 10.551 10.551 0 0 1 .186-1.974 4.445 4.445 0 0 1 .6-1.556 3.188 3.188 0 0 1 1.184-1.022 4.636 4.636 0 0 1 2.043-.395 4.819 4.819 0 0 1 2.066.395 3.09 3.09 0 0 1 1.208 1.028 4.039 4.039 0 0 1 .6 1.556 11.674 11.674 0 0 1-.023 4.017 4.445 4.445 0 0 1-.6 1.556 3.39 3.39 0 0 1-1.208.971z"/><path data-name="Path 10585" d="M191.538 32.449a8.234 8.234 0 0 1-.163 1.788 2.84 2.84 0 0 1-.534 1.231 2.169 2.169 0 0 1-1.045.72 5.353 5.353 0 0 1-1.857.255 5.82 5.82 0 0 1-1.881-.255 2.3 2.3 0 0 1-1-.673 2.5 2.5 0 0 1-.464-1.161 9.98 9.98 0 0 1-.139-1.788v-9.01h-3.827v8.8a17.223 17.223 0 0 0 .255 3.018 5.821 5.821 0 0 0 .955 2.392 4.527 4.527 0 0 0 2 1.556 8.43 8.43 0 0 0 3.227.534 9.808 9.808 0 0 0 2.322-.232 7.043 7.043 0 0 0 1.718-.6 4.468 4.468 0 0 0 1.207-.859c.093-.093.186-.209.279-.3l.534 1.765h2.363V23.556h-3.924v8.893z"/><path data-name="Path 10586" d="M213.134 28.548a7.647 7.647 0 0 0-1.114-2.67 5.938 5.938 0 0 0-2.136-1.857 7.111 7.111 0 0 0-3.32-.673 10.941 10.941 0 0 0-2.461.232 7.627 7.627 0 0 0-1.788.627 5.694 5.694 0 0 0-1.231.836 3.7 3.7 0 0 0-.3.3l-.534-1.788h-2.347v23.219a3.835 3.835 0 0 0 3.831-3.831v-4.62c.023.023.07.046.093.093a4.159 4.159 0 0 0 1.138.72 7.886 7.886 0 0 0 1.579.511 11.088 11.088 0 0 0 2.09.186 7.554 7.554 0 0 0 3.32-.673 5.668 5.668 0 0 0 2.136-1.834 7.563 7.563 0 0 0 1.091-2.624 14.824 14.824 0 0 0 .3-3.088 16.516 16.516 0 0 0-.347-3.066zm-3.576 3.088a11.2 11.2 0 0 1-.186 2.066 3.821 3.821 0 0 1-.6 1.509 2.956 2.956 0 0 1-1.161.952 6.1 6.1 0 0 1-4.063 0 2.8 2.8 0 0 1-1.161-.952 3.779 3.779 0 0 1-.557-1.509 13.675 13.675 0 0 1-.139-2.043 11.728 11.728 0 0 1 .186-2.113 3.79 3.79 0 0 1 .6-1.532 2.956 2.956 0 0 1 1.161-.952 5.1 5.1 0 0 1 2.066-.348 4.772 4.772 0 0 1 1.974.348 2.821 2.821 0 0 1 1.161.975 3.773 3.773 0 0 1 .58 1.532 13.779 13.779 0 0 1 .14 2.067z"/></g></g></svg>